<svg xmlns="http://www.w3.org/2000/svg" viewBox="0 0 173.19 312.41"><defs><style>.cls-1{fill:#e0e0e0;}.cls-2{fill:#b16668;}.cls-3{fill:#263238;}.cls-4{fill:#455a64;}.cls-5{fill:#f5f5f5;}.cls-6{fill:#22293d;}.cls-7{fill:#1f2533;}.cls-8{fill:#9a4a4d;}.cls-9{fill:#e6e6e6;}.cls-10{fill:#6cc164;}.cls-11{fill:#5a9b53;}.cls-12{fill:#7ed875;}</style></defs><title>Recurso 1</title><g id="Capa_2" data-name="Capa 2"><g id="Shadows"><ellipse id="Shadow" class="cls-1" cx="72.56" cy="281.69" rx="53.21" ry="30.72"/></g><g id="Character_2" data-name="Character 2"><g id="Character"><polygon class="cls-2" points="98.86 275.35 89.54 274.28 87.13 255.5 98.52 258.88 98.86 275.35"/><path class="cls-3" d="M78.44,290.67A2.8,2.8,0,0,0,78.6,293c1,1.16,3.58,2.52,7.1,2.77,3.37.24,6.37-.21,8.34-1.46a5.83,5.83,0,0,0,3.12-4.55c.18-1.92,0-3.77.88-5.24s2.19-2.9,2.48-3.64a7.45,7.45,0,0,0,0-3.9Z"/><path class="cls-4" d="M87.64,274a7.4,7.4,0,0,1-.38,2.13,19.56,19.56,0,0,1-2.06,4.21,16.16,16.16,0,0,1-1.41,2c-1,1.21-2.28,2.21-3.35,3.37a6.9,6.9,0,0,0-2.08,4.13c-.14,2.63,4.06,3.53,6.27,3.92a16.19,16.19,0,0,0,7.16-.36,6.56,6.56,0,0,0,4.82-5.25c.12-.74.08-1.48.17-2.22a10.24,10.24,0,0,1,2-4.62,13.69,13.69,0,0,0,1.57-2.51c.69-1.63.14-3.47-.3-5.09-.38-1.41-.84-3-1.34-2.89,0,.73,0,.83-.49,1.32s-.69,1.57-1.38,2.12a11,11,0,0,0,.49-1.88,1.07,1.07,0,0,0-.15-.74,2,2,0,0,0-.81-.44,16.85,16.85,0,0,0-3.2-.73,19.66,19.66,0,0,0-4.47,0,1.38,1.38,0,0,0-.79.46,1.55,1.55,0,0,0-.28.9C87.63,272.16,87.67,273.25,87.64,274Z"/><path class="cls-5" d="M84.84,280.85c1-.74,4.53-.75,5.73-.62a7.26,7.26,0,0,1,3.42,1.2.78.78,0,0,0,1-.08h0a.74.74,0,0,0-.08-1.12,7.35,7.35,0,0,0-3.85-1.42,19.58,19.58,0,0,0-5.17.29S84.55,280,84.84,280.85Z"/><path class="cls-5" d="M82.58,283.55c1.24-.73,5-.62,6.2-.5a6.93,6.93,0,0,1,3.33,1.27.78.78,0,0,0,1-.08h0a.74.74,0,0,0-.08-1.12,14.52,14.52,0,0,0-5.27-1.54c-3-.21-3.73.4-3.73.4A2.46,2.46,0,0,0,82.58,283.55Z"/><path class="cls-5" d="M92.25,276a14.56,14.56,0,0,0-5.06.31c-.52.3-.87,1.12-.53,1.33a14,14,0,0,1,4.64-.45,9.42,9.42,0,0,1,3.2.88c.26.11.56.27.82.41a.69.69,0,0,0,1-.3h0a.66.66,0,0,0-.25-.85A9.55,9.55,0,0,0,92.25,276Z"/><polygon class="cls-2" points="64.11 266.81 55.25 264.34 55.25 246.43 66.24 246.91 64.11 266.81"/><path class="cls-3" d="M36.53,276.4a3.27,3.27,0,0,0,.13,2.35c.33.68,3.92,2.71,8.76,2.38a20.22,20.22,0,0,0,10-3.5c1.84-1.22,3.76-1.45,6.16-1.58s5.54-1.34,6.07-2.46a5.35,5.35,0,0,0-.08-3Z"/><path class="cls-4" d="M56.06,261.3l-.38-.08a1.39,1.39,0,0,0-.64,0,1.3,1.3,0,0,0-.6.41,11.38,11.38,0,0,0-1.23,1.94c-1,1.65-3.15,3-5.47,4.27-1.58.85-3.13,1.51-4.76,2.25s-3.88,1.2-5.18,2.08c-1.9,1.28-2.15,4.5,0,5.77,1.86,1.09,6.77,2.28,11.93.82,2.8-.8,5.92-3.79,9.6-4.08,2.34-.19,6.77-.84,8.28-2.62.55-.79-.19-3.29-.8-5.45-.67-2.36-1.3-6-2.08-5.82a1.12,1.12,0,0,1-.41.88c-.29.29-.68.48-1,.75a6.28,6.28,0,0,0-1.3,1.87,1.37,1.37,0,0,1-.66.72c-.4.15-.69-.1-1-.26a2,2,0,0,0-1.4-.1,9.06,9.06,0,0,1,.25-1.38.78.78,0,0,0,0-.45.66.66,0,0,0-.3-.34A7.43,7.43,0,0,0,56.06,261.3Z"/><path class="cls-5" d="M49.92,266.53a2.18,2.18,0,0,1,1.73-1.16c1.07-.2,3,.59,4.12,1.55a.88.88,0,0,1-.12,1.45h0a.88.88,0,0,1-1-.12A6.71,6.71,0,0,0,49.92,266.53Z"/><path class="cls-5" d="M46.62,268.38a2.51,2.51,0,0,1,2.05-1.06A7.8,7.8,0,0,1,53.18,269a.85.85,0,0,1-.12,1.39h0a.82.82,0,0,1-1-.11A6.7,6.7,0,0,0,46.62,268.38Z"/><path class="cls-5" d="M43,270.05a2.77,2.77,0,0,1,2.12-1,7.53,7.53,0,0,1,4.32,1.7.86.86,0,0,1-.12,1.4h0a.83.83,0,0,1-1-.11A6.39,6.39,0,0,0,43,270.05Z"/><path class="cls-6" d="M96.82,150c.61,18.47.65,58.47.65,58.47.19,2.3.39,6.39.56,14.66.25,12,.83,41.63.83,41.63s-5.73,2.69-11,.5c0,0-7.32-41.66-8.82-53.54C77.75,201.31,75.24,177,75.24,177l-3.47,30.88s0,7.95-.46,15c-.39,5.5-5.73,33.83-5.73,33.83A18.36,18.36,0,0,1,55,256.4s-.48-43.49-.58-48.53c-.11-5.75,1.37-67.81,1.37-67.81Z"/><path class="cls-7" d="M75.24,177l-1.32-10.47A36.33,36.33,0,0,1,62,161.06s2.54,3.4,10,7l1.68,9.5-1.91,30.31Z"/><path class="cls-2" d="M55.29,98.13c-2.7,3.54-16.59,22.6-16.59,22.6l-12.83-9.94c-3-2.35-3.89-5.43-5.78-7.56s-3.93-2.64-6-4.42-2.92-3.13-3.64-1.61,1.6,4.17,2,4.82,2.8,2.16-.38,2-9.3-3.8-10.78-4.47-1.52,1.16-.83,2.36.36,4.54,1.18,6.69,2.26,3.47,5.19,4.92c2.73,1.36,9.37,2.21,11.53,3.58h0C23.07,122,32,131.05,34.27,132.73c3.11,2.31,6.12,4.44,10.88-.14S63.7,110,63.7,110L66.55,93C61.86,92.74,58.55,93.86,55.29,98.13Z"/><path class="cls-8" d="M38.7,120.73c1.76,1.3,3.59,4.22,3.76,5.53a9,9,0,0,0-3-6.56Z"/><path class="cls-9" d="M67.64,92.49s-6.6-.08-9.5,2-5,5-9.76,11.86c-4.14,6-6.13,8.87-6.13,8.87a22.19,22.19,0,0,0,11.21,8.57l12.32-15.27Z"/><path class="cls-5" d="M80.41,92.17c3.74.36,9,.41,12.7.78,2.57,1.06,7.53,5.38,7.16,8.46-1.38,11.51-4.17,30.38-4.17,30.38l.92,20c-5.15,5.14-29.26,7.15-41.67-1.07,0,0,.4-35.92,1.26-42,1.53-10.89,2.87-14.93,8.49-15.89S80.41,92.17,80.41,92.17Z"/><path class="cls-2" d="M101.59,98.42c2.7,3.54,16.6,22.6,16.6,22.6L131,111.08c3-2.35,3.89-5.44,5.77-7.56s3.94-2.64,6.05-4.42,2.92-3.13,3.64-1.62-1.61,4.18-2,4.82-2.8,2.17.38,2,9.29-3.81,10.78-4.48,1.51,1.17.82,2.37-.36,4.54-1.17,6.69-2.27,3.47-5.19,4.92c-2.73,1.36-9.38,2.21-11.53,3.57h0c-4.74,4.86-13.68,13.93-15.94,15.61-3.11,2.3-6.12,4.44-10.88-.14s-15.64-18.8-15.64-18.8L90.33,93.24C95,93,98.34,94.15,101.59,98.42Z"/><path class="cls-8" d="M118.19,121a11.53,11.53,0,0,0-3.77,5.53,9.06,9.06,0,0,1,3-6.57Z"/><path class="cls-9" d="M89.7,92.7s5.93-.37,9,2c2.81,2.16,5,5,9.76,11.85,4.13,6,6.13,8.88,6.13,8.88A22.2,22.2,0,0,1,103.42,124l-8.37-10.36C90.66,108.11,86.33,99.68,89.7,92.7Z"/><path class="cls-3" d="M81.34,65.09a11.6,11.6,0,1,1-11.7-11.5A11.6,11.6,0,0,1,81.34,65.09Z"/><path class="cls-3" d="M89.86,73.27s-1.8,8.85-2.54,10.3A4,4,0,0,1,85,85.46l.07-6.22Z"/><path class="cls-3" d="M87.39,60.64A4.35,4.35,0,0,1,91,61.87c1.56,1.57.74,6.53-1.15,11.4l-3.53.44Z"/><path class="cls-2" d="M85.27,73.72c.71.42,1.71-1,2.58-1.88s3.71-2.2,5.17.79-1.2,7.12-3.45,7.85c-3.86,1.25-4.47-1.24-4.47-1.24l-.16,14.43h0c-4.77,6.22-18.15,5.81-12.63-.69l0-4.26a24.57,24.57,0,0,1-5.23.31c-2.85-.41-4.67-2.65-5.56-5.73-1.43-4.94-2-8.94-.9-18.71,1.2-10.7,13.63-10.92,20.38-6.75S85.27,73.72,85.27,73.72Z"/><path class="cls-3" d="M85.28,74.91c.35,0,1.69-2.26,2.57-3.07,1.21-1.13-.46-11.2-.46-11.2a4.88,4.88,0,0,0-.89-5.44c-1.69-1.84-4-4.07-11.66-3.1-5.42.68-11.31,2.43-16.1.13a8.13,8.13,0,0,0,2.9,8.6s1.74,1.1,6.29,1.61a66.51,66.51,0,0,0,12.58-.35c1.32-.19,1.61,1.09,2.35,4.57C83.51,69.71,84.08,74.9,85.28,74.91Z"/><path class="cls-3" d="M87.39,61.42l4.28-2.34a2.37,2.37,0,0,0-3.26-1A2.57,2.57,0,0,0,87.39,61.42Z"/><path class="cls-8" d="M72.28,88.72s6.36-1.34,8.57-2.54a7.32,7.32,0,0,0,3.05-3.07,10,10,0,0,1-1.71,3.6c-1.61,2.1-9.89,3.7-9.89,3.7Z"/><path class="cls-3" d="M71.76,72.7A1.28,1.28,0,1,0,73,71.36,1.3,1.3,0,0,0,71.76,72.7Z"/><path class="cls-3" d="M75.56,68.31,72.72,67a1.64,1.64,0,0,0,.8,2.12A1.53,1.53,0,0,0,75.56,68.31Z"/><path class="cls-3" d="M63.4,66.74l-2.47,1.94A1.51,1.51,0,0,0,63.1,69,1.64,1.64,0,0,0,63.4,66.74Z"/><path class="cls-3" d="M61.92,72.39a1.22,1.22,0,1,0,1.21-1.28A1.24,1.24,0,0,0,61.92,72.39Z"/><polygon class="cls-8" points="68.53 71.36 67.82 79.01 63.87 77.49 68.53 71.36"/><path class="cls-8" d="M70.71,81.88a1.23,1.23,0,1,0,1.23-1.22A1.23,1.23,0,0,0,70.71,81.88Z"/></g><g id="Question_Marks" data-name="Question Marks"><path class="cls-10" d="M101.93.41a20.89,20.89,0,0,1,5.46,2.05,15.67,15.67,0,0,1,4.34,3.45,12.45,12.45,0,0,1,2.56,4.64,11.07,11.07,0,0,1,.12,5.62,11.35,11.35,0,0,1-1.72,4.11,13.23,13.23,0,0,1-2.7,2.83,21.31,21.31,0,0,1-3.2,2.07l-3.19,1.68a18.6,18.6,0,0,0-2.71,1.76,5.12,5.12,0,0,0-1.7,2.28,2.4,2.4,0,0,1-.81,1,1.44,1.44,0,0,1-1.22.25l-4.69-1a1.74,1.74,0,0,1-1.09-.76,1.41,1.41,0,0,1-.2-1.27,11.1,11.1,0,0,1,1.95-4A15.18,15.18,0,0,1,96,22.34a22.54,22.54,0,0,1,3.29-2q1.71-.86,3.18-1.65A14.45,14.45,0,0,0,105,17a4,4,0,0,0,1.33-2.2,4.77,4.77,0,0,0-1.12-4.28,8.58,8.58,0,0,0-4.91-2.67q-5.24-1.17-8.86,3.53a3.23,3.23,0,0,1-.87.87,1.57,1.57,0,0,1-1.21.09l-5-1.11a1.4,1.4,0,0,1-.88-.58,1.31,1.31,0,0,1-.18-1.07,9.78,9.78,0,0,1,2.3-4.11,15.34,15.34,0,0,1,4.29-3.32A18.71,18.71,0,0,1,95.54.23,16.43,16.43,0,0,1,101.93.41ZM96.65,36a1.62,1.62,0,0,1,1.06.75A1.65,1.65,0,0,1,97.94,38l-1.2,5.42A1.65,1.65,0,0,1,96,44.47a1.62,1.62,0,0,1-1.28.23l-5.3-1.17a1.65,1.65,0,0,1-1.06-.75,1.62,1.62,0,0,1-.23-1.28l1.2-5.42a1.71,1.71,0,0,1,2-1.3Z"/><path class="cls-11" d="M117.65,51.4a14,14,0,0,1,4-.08,10.69,10.69,0,0,1,3.66,1.1,8.48,8.48,0,0,1,2.83,2.32,7.55,7.55,0,0,1,1.51,3.57,7.65,7.65,0,0,1-.05,3.07,9.21,9.21,0,0,1-1,2.51A14.84,14.84,0,0,1,127.1,66l-1.6,1.9a13.05,13.05,0,0,0-1.3,1.82,3.58,3.58,0,0,0-.5,1.89,1.71,1.71,0,0,1-.26.89,1,1,0,0,1-.71.47l-3.27.53a1.22,1.22,0,0,1-.9-.21,1,1,0,0,1-.45-.76,7.44,7.44,0,0,1,.23-3.06A10.33,10.33,0,0,1,119.47,67a14.75,14.75,0,0,1,1.59-2.13c.59-.66,1.12-1.28,1.62-1.88a9.77,9.77,0,0,0,1.17-1.73,2.76,2.76,0,0,0,.29-1.75A3.29,3.29,0,0,0,122.32,57a5.88,5.88,0,0,0-3.83-.46,5.73,5.73,0,0,0-4.77,4.53,2.34,2.34,0,0,1-.34.79,1.11,1.11,0,0,1-.75.36l-3.49.57a.92.92,0,0,1-.7-.15A.89.89,0,0,1,108,62a6.75,6.75,0,0,1,.43-3.22,10.48,10.48,0,0,1,1.9-3.23,12.82,12.82,0,0,1,3.14-2.65A11.38,11.38,0,0,1,117.65,51.4Zm5.71,24.14a1.16,1.16,0,0,1,.88.21,1.15,1.15,0,0,1,.47.76l.62,3.78a1.16,1.16,0,0,1-.21.88,1.15,1.15,0,0,1-.76.47l-3.7.61a1.15,1.15,0,0,1-.87-.21,1.12,1.12,0,0,1-.48-.76l-.62-3.79a1.15,1.15,0,0,1,.21-.87,1.18,1.18,0,0,1,.76-.48Z"/><path class="cls-12" d="M151.75,62.13a1.39,1.39,0,0,1,.56.9,1.36,1.36,0,0,1-.24,1l-2.63,3.7a1.41,1.41,0,0,1-1.94.33l-3.62-2.57a1.41,1.41,0,0,1-.33-1.94l2.64-3.7a1.28,1.28,0,0,1,.9-.56,1.32,1.32,0,0,1,1,.23ZM167.05,37a16.58,16.58,0,0,1,3.46,3.28,12.85,12.85,0,0,1,2.17,4,10.17,10.17,0,0,1,.45,4.31,9,9,0,0,1-1.7,4.27,9.33,9.33,0,0,1-2.6,2.55,10.87,10.87,0,0,1-2.94,1.27,18,18,0,0,1-3.07.54l-2.94.26a14,14,0,0,0-2.6.46,4.18,4.18,0,0,0-2,1.17,2,2,0,0,1-.94.53,1.23,1.23,0,0,1-1-.2l-3.2-2.28a1.41,1.41,0,0,1-.58-.92,1.16,1.16,0,0,1,.25-1,9.11,9.11,0,0,1,2.75-2.39,12.41,12.41,0,0,1,3-1.18,18,18,0,0,1,3.13-.47c1-.07,2-.15,2.92-.24a11.62,11.62,0,0,0,2.43-.48,3.34,3.34,0,0,0,1.7-1.24,3.87,3.87,0,0,0,.52-3.58,7,7,0,0,0-2.84-3.57c-2.38-1.7-5-1.75-7.8-.17a2.8,2.8,0,0,1-.93.38,1.3,1.3,0,0,1-.95-.32l-3.41-2.42a1.14,1.14,0,0,1-.47-.72,1.07,1.07,0,0,1,.21-.86,7.93,7.93,0,0,1,3-2.37,12.69,12.69,0,0,1,4.29-1.13,15.31,15.31,0,0,1,4.85.38A13.5,13.5,0,0,1,167.05,37Z"/></g></g></g></svg>