<svg width="39" height="39" viewBox="0 0 39 39" fill="none" xmlns="http://www.w3.org/2000/svg">
<circle cx="19.0284" cy="19.0284" r="19.0284" fill="#F5F6FA"/>
<path fill-rule="evenodd" clip-rule="evenodd" d="M20.1681 14.0209C20.0781 14.3393 20.0299 14.6752 20.0299 15.0224C20.0299 17.0505 21.674 18.6946 23.7021 18.6946C24.0492 18.6946 24.3852 18.6464 24.7035 18.5564V22.7006C24.7035 23.8068 23.8068 24.7035 22.7006 24.7035H16.0239C14.9177 24.7035 14.0209 23.8068 14.0209 22.7006V16.0239C14.0209 14.9177 14.9177 14.0209 16.0239 14.0209H20.1681Z" fill="black"/>
<path opacity="0.3" d="M23.7021 16.6916C24.6239 16.6916 25.3712 15.9443 25.3712 15.0224C25.3712 14.1006 24.6239 13.3533 23.7021 13.3533C22.7802 13.3533 22.0329 14.1006 22.0329 15.0224C22.0329 15.9443 22.7802 16.6916 23.7021 16.6916Z" fill="black"/>
</svg>
