<svg width="39" height="39" viewBox="0 0 39 39" fill="none" xmlns="http://www.w3.org/2000/svg">
<circle cx="19.0284" cy="19.2028" r="19.0284" fill="#F5F6FA"/>
<path opacity="0.3" d="M22.3667 14.5292C21.2921 14.5292 20.0354 15.7475 19.3622 16.5322C18.6891 15.7475 17.4324 14.5292 16.3578 14.5292C14.4556 14.5292 13.3533 16.0129 13.3533 17.9012C13.3533 19.993 15.3563 22.2074 19.3622 24.5442C23.3682 22.2074 25.3712 20.0375 25.3712 18.0345C25.3712 16.1462 24.2689 14.5292 22.3667 14.5292Z" fill="black"/>
<path d="M19.3622 24.5442C15.3563 22.2074 13.3533 19.993 13.3533 17.9012C13.3533 16.0129 14.4556 14.5292 16.3578 14.5292C17.4324 14.5292 18.6891 15.7475 19.3622 16.5322V24.5442Z" fill="black"/>
</svg>
