<svg xmlns="http://www.w3.org/2000/svg" viewBox="0 0 429.09 364.46"><defs><style>.cls-1{fill:#fafafa;}.cls-2{fill:#f0f0f0;}.cls-3{fill:#6cc164;}.cls-4,.cls-8{opacity:0.2;}.cls-13,.cls-5,.cls-8{fill:#fff;}.cls-6{fill:#455a64;}.cls-7{fill:#f5f5f5;}.cls-9{fill:#263238;}.cls-10{fill:#f28f8f;}.cls-11{fill:#22293d;}.cls-12{fill:#ffa8a7;}.cls-13{opacity:0.6;}</style></defs><title>Recurso 1</title><g id="Capa_2" data-name="Capa 2"><g id="Floor"><path class="cls-1" d="M62.84,331.63c83.78,43.77,219.63,43.77,303.41,0s83.79-114.74,0-158.51-219.63-43.77-303.41,0S-20.95,287.86,62.84,331.63Z"/></g><g id="Shadow"><ellipse class="cls-2" cx="284.66" cy="325.05" rx="30.67" ry="14.62"/></g><g id="Plants"><path class="cls-3" d="M127.6,225.56s3.61-23-4.4-42.78-18.84-21-24.44-18.2-2,13.79,3,21.16c6.57,9.66,17.65,30.49,17.25,49.19Z"/><path class="cls-4" d="M127.6,225.56s3.61-23-4.4-42.78-18.84-21-24.44-18.2-2,13.79,3,21.16c6.57,9.66,17.65,30.49,17.25,49.19Z"/><path class="cls-5" d="M124,227h0a.68.68,0,0,1-.65-.71c1.33-31.49-14.41-55.06-21.2-59.58a.68.68,0,0,1,.76-1.13c8,5.33,23.12,29.38,21.8,60.77A.68.68,0,0,1,124,227Z"/><path class="cls-3" d="M126.18,252.87c-1.37-3.44-4.9-7.28-14-11.39S96.21,231.92,95,228a5.9,5.9,0,0,1,1.62-6.31s-8.57-1-9.65-6.25c-1.36-6.62,6.13-7.05,6.13-7.05s-9.83-13.85-12.44-20,.41-6.52,6.74-4.17,18.42,14.18,20.3,17.79c0,0,3.26-4,6.78-1.38s3.69,10.51,1.61,13.35a7.37,7.37,0,0,1,7.44,3.07c3.57,4.69,4.75,16.42,4.75,16.42Z"/><path class="cls-5" d="M126.83,249.67a.67.67,0,0,1-.66-.52C121.3,228.9,98.23,196.58,83.9,186.3a.68.68,0,1,1,.79-1.11c14.51,10.41,37.87,43.14,42.8,63.64a.68.68,0,0,1-.5.82Z"/></g><g id="Screen_1" data-name="Screen 1"><path class="cls-5" d="M307.84,45.75a.58.58,0,0,1-.34-.09L304.69,44a.68.68,0,0,1-.25-.93.69.69,0,0,1,.93-.25l2.81,1.63a.67.67,0,0,1-.34,1.26Z"/><path class="cls-6" d="M126.18,105V253.83c0,1.66,1.16,2.33,2.6,1.5L302.31,155.14a5.73,5.73,0,0,0,2.6-4.5V1.85c0-1.65-1.16-2.32-2.6-1.5L128.78,100.54A5.74,5.74,0,0,0,126.18,105Z"/><path class="cls-7" d="M146.49,132.53c0,5.18,3.88,7.14,8.66,4.38L292.72,57.49V38.72L155.15,118.15C150.37,120.91,146.49,127.35,146.49,132.53Z"/><path class="cls-3" d="M304.37,32c4.79-2.76,8.66-.8,8.66,4.38S309.16,48,304.37,50.76l-11.65,6.73V38.72Z"/><path class="cls-5" d="M300.22,47.81a2.79,2.79,0,0,1-1.42-.37,3.56,3.56,0,0,1-1.56-3.28,9.83,9.83,0,0,1,4.5-7.8,3.2,3.2,0,0,1,5.18,3,9.8,9.8,0,0,1-4.5,7.8A4.44,4.44,0,0,1,300.22,47.81Zm3.72-10.75a3.11,3.11,0,0,0-1.52.48,8.57,8.57,0,0,0-3.82,6.62A1.88,1.88,0,0,0,301.74,46a8.6,8.6,0,0,0,3.82-6.62,2.32,2.32,0,0,0-.87-2.11A1.54,1.54,0,0,0,303.94,37.06Z"/><path class="cls-3" d="M306.37,73.06,173.46,149.79a5.77,5.77,0,0,0-2.6,4.5V195.2c0,1.66,1.17,2.33,2.6,1.5L306.37,120a5.73,5.73,0,0,0,2.6-4.5V74.56C309,72.9,307.81,72.23,306.37,73.06Z"/><path class="cls-8" d="M306.37,73.06,173.46,149.79a5.77,5.77,0,0,0-2.6,4.5V195.2c0,1.66,1.17,2.33,2.6,1.5L306.37,120a5.73,5.73,0,0,0,2.6-4.5V74.56C309,72.9,307.81,72.23,306.37,73.06Z"/><path class="cls-5" d="M221.77,128.7l24.11-13.91c1.19-.69,2.16-.2,2.16,1.09a4.65,4.65,0,0,1-2.16,3.6l-24.11,13.91c-1.19.7-2.16.21-2.16-1.09A4.65,4.65,0,0,1,221.77,128.7Z"/><path class="cls-5" d="M219.61,141.68c0,1.3,1,1.79,2.16,1.1l72.85-42.06a4.64,4.64,0,0,0,2.17-3.6c0-1.29-1-1.78-2.17-1.09l-72.85,42.06A4.65,4.65,0,0,0,219.61,141.68Z"/><path class="cls-5" d="M219.61,151.06c0,1.3,1,1.79,2.16,1.1l72.85-42.06a4.64,4.64,0,0,0,2.17-3.6c0-1.29-1-1.78-2.17-1.09l-72.85,42.06A4.65,4.65,0,0,0,219.61,151.06Z"/><path class="cls-5" d="M219.61,160.44c0,1.29,1,1.79,2.16,1.09l72.85-42a4.64,4.64,0,0,0,2.17-3.6c0-1.29-1-1.78-2.17-1.09l-72.85,42.05A4.65,4.65,0,0,0,219.61,160.44Z"/><path class="cls-5" d="M177.52,152.14,208.89,134c1.43-.83,2.59-.15,2.59,1.5v31.53a5.76,5.76,0,0,1-2.59,4.5l-31.37,18.1c-1.43.83-2.59.16-2.59-1.5V156.64A5.74,5.74,0,0,1,177.52,152.14Z"/><path class="cls-3" d="M202.92,149.77l-9.32,19.34-4.76-2.74a2,2,0,0,0-2.73.73l-11.18,19.37v1.69c0,1.66,1.16,2.33,2.59,1.5l31.37-18.1a5.74,5.74,0,0,0,2.59-4.5V156l-6.31-6.57A1.29,1.29,0,0,0,202.92,149.77Z"/><path class="cls-3" d="M179.63,163.67a14.7,14.7,0,0,0,6.66-11.53,4.89,4.89,0,0,0-1.65-4.11l-7.12,4.11a5.74,5.74,0,0,0-2.59,4.5v7.5C176.13,164.84,177.8,164.74,179.63,163.67Z"/><path class="cls-3" d="M306.37,134,173.46,210.77a5.76,5.76,0,0,0-2.6,4.5v40.9c0,1.66,1.17,2.33,2.6,1.5l132.91-76.73a5.74,5.74,0,0,0,2.6-4.5V135.53C309,133.88,307.81,133.2,306.37,134Z"/><path class="cls-8" d="M306.37,134,173.46,210.77a5.76,5.76,0,0,0-2.6,4.5v40.9c0,1.66,1.17,2.33,2.6,1.5l132.91-76.73a5.74,5.74,0,0,0,2.6-4.5V135.53C309,133.88,307.81,133.2,306.37,134Z"/><path class="cls-5" d="M221.77,189.68l24.11-13.92c1.19-.69,2.16-.2,2.16,1.1a4.65,4.65,0,0,1-2.16,3.59l-24.11,13.92c-1.19.69-2.16.2-2.16-1.09A4.65,4.65,0,0,1,221.77,189.68Z"/><path class="cls-5" d="M219.61,202.66c0,1.29,1,1.78,2.16,1.09l72.85-42.06a4.64,4.64,0,0,0,2.17-3.59c0-1.3-1-1.79-2.17-1.1l-72.85,42.06A4.65,4.65,0,0,0,219.61,202.66Z"/><path class="cls-5" d="M219.61,212c0,1.29,1,1.78,2.16,1.09l72.85-42.06a4.64,4.64,0,0,0,2.17-3.59c0-1.3-1-1.79-2.17-1.1l-72.85,42.06A4.65,4.65,0,0,0,219.61,212Z"/><path class="cls-5" d="M219.61,221.42c0,1.29,1,1.78,2.16,1.09l72.85-42.06a4.64,4.64,0,0,0,2.17-3.59c0-1.3-1-1.79-2.17-1.1l-72.85,42.06A4.65,4.65,0,0,0,219.61,221.42Z"/><path class="cls-5" d="M177.52,213.11,208.89,195c1.43-.83,2.59-.16,2.59,1.5V228a5.74,5.74,0,0,1-2.59,4.5l-31.37,18.11c-1.43.83-2.59.16-2.59-1.5V217.61A5.76,5.76,0,0,1,177.52,213.11Z"/><path class="cls-3" d="M202.92,210.74l-9.32,19.35-4.76-2.75a2,2,0,0,0-2.73.73l-11.18,19.38v1.69c0,1.66,1.16,2.33,2.59,1.5l31.37-18.11a5.74,5.74,0,0,0,2.59-4.5V217l-6.31-6.57A1.29,1.29,0,0,0,202.92,210.74Z"/><path class="cls-3" d="M179.63,224.65a14.71,14.71,0,0,0,6.66-11.53,4.87,4.87,0,0,0-1.65-4.11l-7.12,4.1a5.76,5.76,0,0,0-2.59,4.5v7.51C176.13,225.81,177.8,225.71,179.63,224.65Z"/><path class="cls-3" d="M304.91,8.24V1.85c0-1.65-1.16-2.32-2.6-1.5L128.78,100.54a5.74,5.74,0,0,0-2.6,4.5v6.39Z"/><path class="cls-7" d="M283.63,13.59a4.26,4.26,0,0,0-1.93,3.34c0,1.23.86,1.73,1.93,1.11a4.26,4.26,0,0,0,1.92-3.33C285.55,13.48,284.69,13,283.63,13.59Z"/><path class="cls-7" d="M291.27,9.18a4.26,4.26,0,0,0-1.92,3.34c0,1.22.86,1.72,1.92,1.11a4.26,4.26,0,0,0,1.93-3.34C293.2,9.06,292.34,8.56,291.27,9.18Z"/><path class="cls-7" d="M298.92,4.76A4.29,4.29,0,0,0,297,8.1c0,1.23.87,1.73,1.93,1.11a4.27,4.27,0,0,0,1.93-3.33C300.85,4.65,300,4.15,298.92,4.76Z"/></g><g id="Character"><path class="cls-9" d="M307.69,318.45a9.86,9.86,0,0,1,.61,2.39,3.42,3.42,0,0,1-2.78,5,6.64,6.64,0,0,1-5.23-1c-1.82-1.09-3.2-2.42-5.79-3.16a13,13,0,0,1-5.13-2.32c-1.44-1.16-3.36-4.35-.6-5.09s8.74,1.87,14.18,2.11Z"/><path class="cls-10" d="M307.43,314.85s.33,3.82.33,4.28c0,1.3-4.76,3-5.65,0l-.76-4.05Z"/><path class="cls-11" d="M301.59,231a77.9,77.9,0,0,1,4.49,7.48s.47,5.56.47,9.26c0,6.8-1.06,12-2,25.45a19,19,0,0,1,2.59,8.66c.4,6.07.4,6,.44,34a7.75,7.75,0,0,1-5.95.58l-9-39.21-1-15.39-2.82-19.13Z"/><path class="cls-9" d="M280.28,325.46c.32.33.21,1,.36,2.1a9,9,0,0,1,.13,2.57,5.29,5.29,0,0,1-2.65,2.67,6.62,6.62,0,0,1-5.32-.36c-1.95-.85-3.48-2-6.14-2.4a13.35,13.35,0,0,1-5.38-1.67c-1.57-1-3.87-3.9-1.23-5s9.25.87,14.68.42Z"/><path class="cls-10" d="M281.53,320.66s-1,4.36-1.27,5.33c-.59,2.33-5.77,2.45-5.77-.24l.35-6.2Z"/><path class="cls-11" d="M289.91,232.18c2.59,5.08,5.09,9.58,5.18,15,.18,11.46-4.58,24.1-6.33,32.39a36.88,36.88,0,0,1,.44,9.09c-.35,3.46-8.26,35-8.26,35s-4.4.91-6.27-1.07l2.23-60.71.59-17.64Z"/><polygon class="cls-12" points="286.35 201.14 287.99 210.16 296.14 209.57 294.43 199.34 286.35 201.14"/><path class="cls-6" d="M304.75,208.91c-.81-2.45-3.92-5.12-7-4.55a92.49,92.49,0,0,0-13.64,3.41c-2.85,1-5.45,3.48-5.68,12.87l-.9,23.59a10.21,10.21,0,0,0,4.31,2.28c4.34,1.2,7.19,1.9,13.77.47,8.57-1.88,10.61-7.07,10.61-7.07s-.33-12.48-.58-19.27C305.38,214.86,305.3,210.59,304.75,208.91Z"/><path class="cls-9" d="M282.87,189.61l-41.54-11.27c-3.76-.65-5.33,8.52-1.58,9.17l42.71,4.31Z"/><path class="cls-12" d="M270.92,208.65l-8.49.26s1.28-12.64,2.07-14.29,2.69-2,4.56-2.53,1.88-1.43,1.88-1.43l-1.7-.17c-1.48-.15-2.06-2-1.42-3.25.3-.58.8-1.5,1.7-1.25l2.24.61a5.21,5.21,0,0,0-.71-2.82c-.74-.83-1.25-.57-2.74-1.09-1.12-.39-3.38-1.08-5.22-.33s-3.22,4.19-3.68,6.62a41,41,0,0,1-2.3,8.2c-1.64,4.51-4,13.74-4.26,17.45-.1,1.71.06,2.72,2,3.18s15.87.48,15.87.48Z"/><path class="cls-12" d="M280.31,190.45s-2,2.92-1.72,3.23a4.54,4.54,0,0,0,1.49.66Z"/><path class="cls-12" d="M286.35,181.18c-1.9,1-5.19,2.74-6.09,9.7-.94,7.14.29,9.44,1.26,10.39.65.64,4.19.67,6,.14,2.22-.67,7.24-2.57,9.52-6.24,2.69-4.32,3.3-10.1.26-12.4A11.44,11.44,0,0,0,286.35,181.18Z"/><path class="cls-9" d="M291.93,267.4l4.33-12.24a21.38,21.38,0,0,0,8.75-5.84s-1,3.49-7.84,7.07L292.42,268l0,6.44Z"/><path class="cls-9" d="M279.86,183.58c.63,1.71,1.68,5.9,6.05,7.66,0,0,.63-2.68,2.88-2.39s2.63,3.15,1.25,4.93-2.73,1.14-2.73,1.14-.3,3.83,2.26,5.57a7.19,7.19,0,0,0,6.36.45c1.48-.68,3.56-4.2,4.78-7.1,2.59-6.12,3-11-.95-12.58-.48-2.78-1.73-3.83-4.25-4.35-5.43-1.12-9.53,2.45-14.08,1.82C279.06,178.4,279.15,181.62,279.86,183.58Z"/><path class="cls-9" d="M299.85,182.2l2.55-1.59a1.5,1.5,0,1,0-2.55,1.59Z"/><path class="cls-6" d="M269,208.47s12-.68,15.05-.7,6.3,5.18,4.39,8.73c-1.26,2.34-5.18,3.14-10.13,3.38s-9.95.24-9.95.24S263.88,215,269,208.47Z"/><path class="cls-11" d="M278.41,219.88s7.58-.1,10-3.38c0,0-.58,2-3.51,3.24a21.72,21.72,0,0,1-6.58,1.41Z"/><path class="cls-6" d="M241.33,178.34c-3.76-.65-5.33,8.52-1.58,9.17l6,.6c-2.44-.25-.74-8.79,1.12-8.28h0Z"/></g><g id="Magnifiyng_Glass" data-name="Magnifiyng Glass"><path class="cls-6" d="M392.65,175.89a9.26,9.26,0,0,1-16,6.3l-.61-.74,0,0a9.26,9.26,0,0,1,14.2-11.85l.63.76h0A9.28,9.28,0,0,1,392.65,175.89Z"/><path class="cls-6" d="M392.65,175.89a9.26,9.26,0,0,1-16,6.3l-.61-.74,0,0-38.56-46.55,16.25-9.38,36.51,44.08.63.76h0A9.28,9.28,0,0,1,392.65,175.89Z"/><path class="cls-3" d="M360.74,163A9.26,9.26,0,0,0,375,151.2h0l-4.77-5.75h0A9.26,9.26,0,0,1,356,157.29Z"/><path class="cls-9" d="M353.05,52.29A21.39,21.39,0,0,1,361.32,55l-11.73-6.82h0c-7.87-5.41-19.2-5.09-31.79,2.17C294,64.06,274.75,97.45,274.75,124.91c0,13.49,4.6,23.13,12.16,27.71l.17.1,12.52,7.21a21.3,21.3,0,0,1-5.71-5.43,28.14,28.14,0,0,0,9.22-.53c1.1-.24,2.21-.53,3.34-.89a3.2,3.2,0,0,1-.43-.17,12.26,12.26,0,0,1-1.72-1,12.59,12.59,0,0,1-2.6-2.47,17,17,0,0,1-2.43-4.24,17.59,17.59,0,0,1-2.47.17,13.55,13.55,0,0,1-5.66-1.12,9.86,9.86,0,0,1-1.2-.65c-.36-.23-.71-.48-1.05-.74a47.68,47.68,0,0,1-1.05-10.3c0-27.46,19.28-60.85,43.07-74.58a49.13,49.13,0,0,1,9.61-4.31A11.5,11.5,0,0,1,343,55.15a12.71,12.71,0,0,1,2.18,2.16,17.4,17.4,0,0,1,2.45,4.26,17.63,17.63,0,0,1,2.47-.18A12.73,12.73,0,0,1,356.62,63a9.53,9.53,0,0,1,1.43.94q-.26-1.21-.6-2.34A28.12,28.12,0,0,0,353.05,52.29Z"/><path class="cls-6" d="M361.32,55l-.67-.37a21.6,21.6,0,0,0-7.6-2.32,27.64,27.64,0,0,0-8.53.38,39.83,39.83,0,0,0-4,1A49.13,49.13,0,0,0,330.91,58c-23.79,13.73-43.07,47.12-43.07,74.58a47.68,47.68,0,0,0,1.05,10.3c.13.61.28,1.19.44,1.77a29,29,0,0,0,4.56,9.85,20.83,20.83,0,0,0,3.24,3.56,20,20,0,0,0,2.47,1.87c7.84,5.06,19,4.63,31.3-2.49C354.68,143.71,374,110.32,374,82.86,374,69.11,369.13,59.46,361.32,55Zm-4.7,8a9.53,9.53,0,0,1,1.43.94A12.89,12.89,0,0,1,360.1,66c3,3.76,4.59,9.6,4.59,16.89,0,24-17.6,54.52-38.43,66.55-5.25,3-10.3,4.64-14.59,4.64a13.31,13.31,0,0,1-5.22-1,3.2,3.2,0,0,1-.43-.17,11,11,0,0,1-3.57-2.6h0c-.25-.26-.49-.56-.73-.85a17,17,0,0,1-2.43-4.24,33.25,33.25,0,0,1-2.15-12.64c0-.32,0-.64,0-1,.43-23.89,17.85-53.72,38.4-65.58.48-.28.95-.54,1.43-.79a31.79,31.79,0,0,1,10.69-3.67,17.63,17.63,0,0,1,2.47-.18,13.34,13.34,0,0,1,5.19,1A8.51,8.51,0,0,1,356.62,63Z"/><path class="cls-11" d="M364.69,82.86c0,24-17.6,54.52-38.43,66.55a40.05,40.05,0,0,1-3.9,2h0a26.41,26.41,0,0,1-10.67,2.63,13.31,13.31,0,0,1-5.22-1,3.2,3.2,0,0,1-.43-.17,12.26,12.26,0,0,1-1.72-1,12.59,12.59,0,0,1-2.6-2.47c-.26-.34-.52-.69-.76-1.07.46,0,.95.07,1.45.07,4.3,0,9.35-1.61,14.59-4.64,20.83-12,38.43-42.51,38.43-66.55,0-6.61-1.31-12-3.8-15.8a11.71,11.71,0,0,1,5,1.5,9.53,9.53,0,0,1,1.43.94A12.89,12.89,0,0,1,360.1,66c2.64,3.31,4.19,8.22,4.51,14.32C364.66,81.13,364.69,82,364.69,82.86Z"/><path class="cls-13" d="M360.67,80.09c0,24-17.59,54.52-38.43,66.55-5.24,3-10.29,4.64-14.59,4.64a13.24,13.24,0,0,1-5.2-1h0c-.25-.26-.49-.56-.73-.85a17,17,0,0,1-2.43-4.24,33.25,33.25,0,0,1-2.15-12.64c0-.32,0-.64,0-1,.43-23.89,17.85-53.72,38.4-65.58.48-.28.95-.54,1.43-.79a31.79,31.79,0,0,1,10.69-3.67,17.63,17.63,0,0,1,2.47-.18,13.34,13.34,0,0,1,5.19,1,8.85,8.85,0,0,1,.76.85C359.08,67,360.67,72.8,360.67,80.09Z"/></g></g></svg>